<svg width="84" height="84" viewBox="0 0 84 84" fill="none" xmlns="http://www.w3.org/2000/svg">
<path d="M40.377 58.6398C40.377 60.2631 41.497 61.0709 43.3116 61.0709C45.3565 61.0709 46.7887 59.6037 46.7887 57.4806V55.8963C46.5195 55.8573 45.7858 55.8184 45.3215 55.8184C42.1566 55.8184 40.3809 56.7823 40.3809 58.6359L40.377 58.6398Z" fill="#000D3C"/>
<path d="M79.202 12.3688C78.3786 8.41952 76.0761 5.78537 71.6313 4.79804C64.3884 2.98731 53.6877 2 42.0001 2C30.3121 2 19.6117 2.98731 12.3688 4.79804C7.92391 5.78537 5.62147 8.41952 4.79806 12.3688C3.15122 19.2839 2 30.3123 2 41.9999C2 53.6878 3.15122 64.7161 4.79806 71.6312C5.62147 75.5806 7.92391 78.2146 12.3688 79.2019C19.6117 81.0125 30.3121 82 42.0001 82C53.6877 82 64.3884 81.0125 71.6313 79.2019C76.0761 78.2146 78.3786 75.5806 79.202 71.6312C80.8487 64.7161 81.9999 53.6878 81.9999 41.9999C81.9999 30.3123 80.8487 19.2839 79.202 12.3688ZM59.6468 38.6791L69.4146 36.9424V42.0391H59.6468V38.6791ZM16.7122 64.7786H10.8429V44.7395H16.7122V64.7786ZM13.7776 42.6556C11.7327 42.6556 10.3044 41.3053 10.3044 39.2956C10.3044 37.2859 11.7327 35.9356 13.7776 35.9356C15.8224 35.9356 17.2546 37.2859 17.2546 39.2956C17.2546 41.3053 15.8264 42.6556 13.7776 42.6556ZM32.8527 49.2976H27.756V57.4809C27.756 59.604 28.6067 60.5327 30.4956 60.5327C31.3853 60.5327 32.1541 60.4155 32.5795 60.3024V64.7824C31.924 64.9737 30.5737 65.1688 28.9502 65.1688C24.4352 65.1688 21.8829 62.7376 21.8829 57.8713V49.3014H18.9483V44.7474H21.8829V39.7287L27.7523 38.6868V44.7474H32.8487V49.3014L32.8527 49.2976ZM52.3883 64.7786H46.9054L46.8273 62.6947C45.6293 64.314 43.9318 65.2819 41.5747 65.2819C37.3679 65.2819 34.7026 62.8898 34.7026 59.1044C34.7026 54.7415 38.6011 52.1931 44.7786 52.1931C45.5122 52.1931 46.285 52.2323 46.7493 52.2713C46.7493 50.1092 45.2429 48.8723 42.5426 48.8723C40.3805 48.8723 38.0626 49.4145 35.7484 50.3005V45.5902C38.1053 44.7005 40.5366 44.2399 43.4712 44.2399C49.1844 44.2399 52.3923 47.2917 52.3923 53.0049V64.7824L52.3883 64.7786ZM73.161 64.7786H67.5258L67.4479 62.6165C66.1365 64.3922 64.4743 65.2819 62.0429 65.2819C57.9141 65.2819 55.2879 62.3473 55.2879 57.7541V44.7435H61.1572V56.7902C61.1572 59.2215 62.199 60.5366 64.1308 60.5366C66.0626 60.5366 67.2957 58.9912 67.2957 56.5599V44.7474H73.165V64.7863L73.161 64.7786Z" fill="#000D3C"/>
</svg>
