<svg width="61" height="61" viewBox="0 0 61 61" fill="none" xmlns="http://www.w3.org/2000/svg">
<path d="M29.3213 42.5838C29.3213 43.7627 30.1346 44.3493 31.4524 44.3493C32.9374 44.3493 33.9775 43.2838 33.9775 41.742V40.5915C33.7819 40.5632 33.2492 40.5349 32.912 40.5349C30.6136 40.5349 29.3242 41.2349 29.3242 42.581L29.3213 42.5838Z" fill="white"/>
<path d="M57.5165 8.9821C56.9185 6.11418 55.2464 4.20129 52.0187 3.48431C46.759 2.16937 38.9883 1.45239 30.5008 1.45239C22.0131 1.45239 14.2426 2.16937 8.98283 3.48431C5.75501 4.20129 4.083 6.11418 3.48505 8.9821C2.28913 14.0038 1.45312 22.0125 1.45312 30.5C1.45312 38.9876 2.28913 46.9962 3.48505 52.0179C4.083 54.8859 5.75501 56.7987 8.98283 57.5157C14.2426 58.8306 22.0131 59.5476 30.5008 59.5476C38.9883 59.5476 46.759 58.8306 52.0187 57.5157C55.2464 56.7987 56.9185 54.8859 57.5165 52.0179C58.7123 46.9962 59.5483 38.9876 59.5483 30.5C59.5483 22.0125 58.7123 14.0038 57.5165 8.9821ZM43.3157 28.0884L50.409 26.8272V30.5284H43.3157V28.0884ZM12.137 47.0416H7.87478V32.4894H12.137V47.0416ZM10.0059 30.9761C8.5209 30.9761 7.4837 29.9955 7.4837 28.5361C7.4837 27.0767 8.5209 26.0961 10.0059 26.0961C11.4908 26.0961 12.5309 27.0767 12.5309 28.5361C12.5309 29.9955 11.4937 30.9761 10.0059 30.9761ZM23.858 35.7995H20.1569V41.7421C20.1569 43.2839 20.7747 43.9582 22.1463 43.9582C22.7924 43.9582 23.3507 43.8732 23.6596 43.791V47.0443C23.1837 47.1833 22.2031 47.3249 21.0241 47.3249C17.7453 47.3249 15.8919 45.5595 15.8919 42.0256V35.8022H13.7608V32.4952H15.8919V28.8506L20.1542 28.094V32.4952H23.8552V35.8022L23.858 35.7995ZM38.0446 47.0416H34.063L34.0062 45.5283C33.1363 46.7043 31.9036 47.4071 30.1919 47.4071C27.137 47.4071 25.2014 45.67 25.2014 42.9211C25.2014 39.7528 28.0325 37.9021 32.5185 37.9021C33.0513 37.9021 33.6125 37.9306 33.9496 37.9589C33.9496 36.3888 32.8557 35.4906 30.8947 35.4906C29.3247 35.4906 27.6414 35.8844 25.9609 36.5278V33.1072C27.6724 32.4611 29.438 32.1266 31.5691 32.1266C35.718 32.1266 38.0475 34.3428 38.0475 38.4916V47.0443L38.0446 47.0416ZM53.1296 47.0416H49.0373L48.9807 45.4716C48.0285 46.761 46.8213 47.4071 45.0557 47.4071C42.0574 47.4071 40.1503 45.276 40.1503 41.9405V32.4923H44.4125V41.2405C44.4125 43.0061 45.1691 43.9611 46.5719 43.9611C47.9747 43.9611 48.8703 42.8389 48.8703 41.0733V32.4952H53.1325V47.0472L53.1296 47.0416Z" fill="white"/>
</svg>
